<?xml version="1.0" encoding="utf-8"?>
<!-- Generator: Adobe Illustrator 21.0.2, SVG Export Plug-In . SVG Version: 6.00 Build 0)  -->
<svg version="1.1" id="Ebene_1" xmlns="http://www.w3.org/2000/svg" xmlns:xlink="http://www.w3.org/1999/xlink" x="0px" y="0px"
	 viewBox="0 0 16 16" style="enable-background:new 0 0 16 16;" xml:space="preserve">
<style type="text/css">
	.st0{fill:#1D2D44;}
	.st1{fill:#FFFFFF;stroke:#1D2D44;stroke-width:0.1806;}
</style>
<path id="background" class="st0" d="M15.5,16H0.5C0.2,16,0,15.8,0,15.5V0.5C0,0.2,0.2,0,0.5,0l14.9,0C15.8,0,16,0.2,16,0.5v14.9
	C16,15.8,15.8,16,15.5,16z"/>
<g id="cloud">
	<circle id="circle265" class="st1" cx="5.4" cy="6.4" r="0.9"/>
	<circle id="circle272" class="st1" cx="3.7" cy="9.6" r="1.7"/>
	<circle id="circle279" class="st1" cx="5.6" cy="8.4" r="1.8"/>
	<circle id="circle286" class="st1" cx="9.3" cy="7.7" r="1.7"/>
	<circle id="circle293" class="st1" cx="7.4" cy="6.4" r="1.7"/>
	<circle id="circle300" class="st1" cx="13" cy="10.2" r="1"/>
	<circle id="circle307" class="st1" cx="11" cy="9.5" r="1.8"/>
	<circle id="circle314" class="st1" cx="5.5" cy="10.3" r="1"/>
	<path id="path321" class="st1" d="M10.3,8.9c0,1.3-1,2.3-2.3,2.3c-1.3,0-2.3-1-2.3-2.3c0-1.3,1-2.3,2.3-2.3S10.3,7.7,10.3,8.9z"/>
</g>
<g>
</g>
<g>
</g>
<g>
</g>
<g>
</g>
<g>
</g>
<g>
</g>
<g>
</g>
<g>
</g>
<g>
</g>
<g>
</g>
<g>
</g>
<g>
</g>
<g>
</g>
<g>
</g>
<g>
</g>
</svg>
