<?xml version="1.0" encoding="UTF-8" standalone="no"?>
<svg
   xmlns:dc="http://purl.org/dc/elements/1.1/"
   xmlns:cc="http://creativecommons.org/ns#"
   xmlns:rdf="http://www.w3.org/1999/02/22-rdf-syntax-ns#"
   xmlns:svg="http://www.w3.org/2000/svg"
   xmlns="http://www.w3.org/2000/svg"
   version="1.1"
   id="svg2"
   overflow="visible"
   preserveAspectRatio="xMinYMid meet"
   viewBox="-2 -1 16 16"
   height="16"
   width="16">
  <metadata
     id="metadata10">
    <rdf:RDF>
      <cc:Work
         rdf:about="">
        <dc:format>image/svg+xml</dc:format>
        <dc:type
           rdf:resource="http://purl.org/dc/dcmitype/StillImage" />
        <dc:title></dc:title>
      </cc:Work>
    </rdf:RDF>
  </metadata>
  <defs
     id="defs8">
    <clipPath
       id="clipPath4307"
       clipPathUnits="userSpaceOnUse">
      <rect
         y="3.8813558"
         x="23.220339"
         height="7.3898306"
         width="12.81356"
         id="rect4309"
         style="fill:#1d2d44;fill-opacity:0" />
    </clipPath>
  </defs>
  <path
     style="fill:#1d2d44;fill-opacity:1"
     id="path4"
     fill="#999"
     d="M12 11v2c0 1-2.7 1.9-6 1.9s-6-.8-6-1.9v-2c0 1 2.7 1.9 6 1.9s6-.8 6-1.9zM6 9.9c-3.3 0-6-.8-6-1.9v2c0 1 2.7 1.9 6 1.9s6-.8 6-1.9V8c0 1.1-2.7 1.9-6 1.9zm0-3c-3.3 0-6-.8-6-1.9v2c0 1 2.7 1.9 6 1.9s6-.8 6-1.9V5c0 1.1-2.7 1.9-6 1.9zm6-5C12 .8 9.3 0 6 0S0 .8 0 1.9V4c0 1 2.7 1.9 6 1.9s6-.8 6-1.9V1.9z" />
  <style
     type="text/css"
     id="style4227">
	.st0{fill:#1D2D44;}
	.st1{fill:#FFFFFF;stroke:#1D2D44;stroke-width:0.1806;}
</style>
  <g
     transform="matrix(0.7328344,0,0,0.65004849,0.27291653,-2.7766588)"
     id="g4277">
    <path
       clip-path="url(#clipPath4307)"
       style="fill:#1d2d44"
       id="background"
       class="st0"
       d="m 15.5,16 -15,0 C 0.2,16 0,15.8 0,15.5 L 0,0.5 C 0,0.2 0.2,0 0.5,0 L 15.4,0 C 15.8,0 16,0.2 16,0.5 l 0,14.9 c 0,0.4 -0.2,0.6 -0.5,0.6 z" />
    <g
       id="cloud">
      <circle
         style="fill:#ffffff;stroke:#1d2d44;stroke-width:0.1806"
         id="circle265"
         class="st1"
         cx="5.4000001"
         cy="6.4000001"
         r="0.89999998" />
      <circle
         style="fill:#ffffff;stroke:#1d2d44;stroke-width:0.1806"
         id="circle272"
         class="st1"
         cx="3.7"
         cy="9.6000004"
         r="1.7" />
      <circle
         style="fill:#ffffff;stroke:#1d2d44;stroke-width:0.1806"
         id="circle279"
         class="st1"
         cx="5.5999999"
         cy="8.3999996"
         r="1.8" />
      <circle
         style="fill:#ffffff;stroke:#1d2d44;stroke-width:0.1806"
         id="circle286"
         class="st1"
         cx="9.3000002"
         cy="7.6999998"
         r="1.7" />
      <circle
         style="fill:#ffffff;stroke:#1d2d44;stroke-width:0.1806"
         id="circle293"
         class="st1"
         cx="7.4000001"
         cy="6.4000001"
         r="1.7" />
      <circle
         style="fill:#ffffff;stroke:#1d2d44;stroke-width:0.1806"
         id="circle300"
         class="st1"
         cx="13"
         cy="10.2"
         r="1" />
      <circle
         style="fill:#ffffff;stroke:#1d2d44;stroke-width:0.1806"
         id="circle307"
         class="st1"
         cx="11"
         cy="9.5"
         r="1.8" />
      <circle
         style="fill:#ffffff;stroke:#1d2d44;stroke-width:0.1806"
         id="circle314"
         class="st1"
         cx="5.5"
         cy="10.3"
         r="1" />
      <path
         style="fill:#ffffff;stroke:#1d2d44;stroke-width:0.1806"
         id="path321"
         class="st1"
         d="m 10.3,8.9 c 0,1.3 -1,2.3 -2.3,2.3 -1.3,0 -2.3,-1 -2.3,-2.3 0,-1.3 1,-2.3 2.3,-2.3 1.3,0 2.3,1.1 2.3,2.3 z" />
    </g>
    <g
       id="g4240" />
    <g
       id="g4242" />
    <g
       id="g4244" />
    <g
       id="g4246" />
    <g
       id="g4248" />
    <g
       id="g4250" />
    <g
       id="g4252" />
    <g
       id="g4254" />
    <g
       id="g4256" />
    <g
       id="g4258" />
    <g
       id="g4260" />
    <g
       id="g4262" />
    <g
       id="g4264" />
    <g
       id="g4266" />
    <g
       id="g4268" />
  </g>
</svg>
